<?xml version="1.0" standalone="no"?>
<!DOCTYPE svg PUBLIC "-//W3C//DTD SVG 20010904//EN"
 "http://www.w3.org/TR/2001/REC-SVG-20010904/DTD/svg10.dtd">
<svg version="1.0" xmlns="http://www.w3.org/2000/svg"
 width="512.000000pt" height="512.000000pt" viewBox="0 0 512.000000 512.000000"
 preserveAspectRatio="xMidYMid meet">
<metadata>
Created by potrace 1.14, written by Peter Selinger 2001-2017
</metadata>
<g transform="translate(0.000000,512.000000) scale(0.100000,-0.100000)"
fill="#000000" stroke="none">
<path d="M2508 4424 c-41 -21 -55 -59 -53 -139 1 -65 -8 -100 -24 -91 -3 2
-33 7 -66 10 -33 4 -96 11 -140 16 -44 5 -111 12 -150 16 -38 3 -77 7 -85 9
-8 1 -53 6 -100 11 -47 4 -89 8 -95 9 -17 2 -47 -16 -199 -124 -81 -57 -155
-115 -163 -128 -25 -38 -7 -72 105 -191 173 -185 190 -202 209 -203 10 0 25
-2 33 -3 8 -2 44 -6 80 -10 36 -3 153 -15 260 -26 107 -11 222 -23 255 -26 33
-3 65 -7 70 -8 6 -2 10 -55 10 -132 l0 -129 -350 -3 c-192 -1 -360 -4 -372 -7
-13 -3 -30 -16 -38 -29 -18 -27 -18 -24 -16 -333 1 -219 1 -222 25 -250 l24
-28 366 2 366 1 0 -122 0 -121 -360 2 -360 3 -113 -97 c-194 -168 -207 -182
-207 -220 0 -34 7 -43 80 -108 19 -17 73 -65 120 -106 152 -134 91 -119 491
-119 l349 0 1 -27 c0 -16 3 -259 5 -542 4 -563 2 -544 65 -576 55 -29 131 2
147 60 5 17 8 267 6 558 l-2 527 339 -1 c354 0 372 2 388 44 5 12 9 139 10
283 2 246 1 262 -18 285 l-19 24 -348 3 c-192 2 -350 5 -351 6 -2 2 -4 58 -6
124 l-2 122 95 0 c52 1 199 1 325 2 127 0 239 4 250 9 11 4 34 20 51 36 37 33
74 66 174 153 97 85 109 99 110 134 0 31 -20 53 -145 162 -141 123 -166 144
-178 146 -7 1 -163 2 -347 2 l-335 1 0 115 0 115 55 -1 c49 -1 136 -8 225 -19
17 -3 59 -7 95 -10 36 -4 76 -8 90 -11 14 -2 62 -6 107 -9 123 -9 136 2 148
136 3 41 8 85 10 99 6 42 21 174 30 265 11 109 -9 127 -150 140 -104 9 -156
15 -195 20 -19 3 -62 7 -95 11 -33 3 -76 7 -95 10 -19 2 -64 7 -100 10 -36 4
-74 8 -85 10 -11 1 -26 3 -33 3 -8 1 -13 11 -12 24 1 12 2 57 1 101 -1 75 -2
79 -35 112 -38 38 -81 44 -128 18z"/>
</g>
</svg>
