<?xml version="1.0" standalone="no"?>
<!DOCTYPE svg PUBLIC "-//W3C//DTD SVG 20010904//EN"
 "http://www.w3.org/TR/2001/REC-SVG-20010904/DTD/svg10.dtd">
<svg version="1.0" xmlns="http://www.w3.org/2000/svg"
 width="512.000000pt" height="512.000000pt" viewBox="0 0 512.000000 512.000000"
 preserveAspectRatio="xMidYMid meet">
<metadata>
Created by potrace 1.14, written by Peter Selinger 2001-2017
</metadata>
<g transform="translate(0.000000,512.000000) scale(0.100000,-0.100000)"
fill="#000000" stroke="none">
<path d="M2540 4476 c-57 -18 -77 -59 -75 -155 0 -50 -3 -81 -10 -81 -12 0
-131 13 -335 35 -25 3 -65 7 -90 10 -25 2 -65 7 -90 9 -25 3 -70 8 -100 11
l-56 6 -167 -118 c-166 -118 -196 -149 -183 -190 7 -22 22 -40 161 -188 61
-64 112 -120 115 -125 11 -16 49 -28 110 -34 36 -4 85 -9 110 -12 25 -2 65 -6
90 -9 25 -2 131 -14 235 -25 105 -11 195 -20 200 -20 6 0 11 -51 13 -130 l2
-130 -27 -1 c-16 0 -165 -2 -333 -4 -168 -2 -321 -4 -341 -4 -21 -1 -44 -9
-57 -21 -22 -20 -22 -26 -22 -296 l0 -275 25 -24 24 -25 366 0 365 0 0 -120 0
-120 -52 -1 c-29 -1 -56 -1 -60 0 -4 0 -142 1 -308 1 l-302 1 -41 -34 c-23
-19 -54 -45 -68 -58 -14 -13 -59 -53 -100 -89 -108 -96 -109 -97 -109 -134 0
-31 10 -43 93 -118 173 -155 229 -203 246 -209 9 -3 169 -6 355 -7 187 -1 342
-4 344 -7 3 -2 6 -241 8 -531 2 -375 6 -534 14 -555 34 -80 153 -81 193 -1 12
22 14 124 11 560 l-3 532 32 1 c18 0 167 0 333 -1 172 -1 311 3 325 9 45 17
49 46 46 330 l-2 264 -25 18 c-23 17 -52 19 -368 21 l-343 3 3 125 3 124 320
2 c176 1 325 2 332 3 14 1 198 158 305 262 37 36 49 78 30 104 -6 9 -98 91
-227 204 -90 79 -50 72 -421 70 -183 0 -337 1 -341 4 -4 3 -8 56 -8 119 1 106
2 113 20 111 11 -1 55 -5 97 -8 42 -3 85 -7 95 -9 10 -2 54 -7 98 -11 44 -3
91 -8 105 -10 51 -8 127 -16 185 -20 91 -6 110 16 120 141 4 43 8 81 10 84 2
3 6 43 10 90 4 47 9 94 11 105 2 11 7 52 10 92 6 68 5 73 -19 97 -18 18 -38
26 -64 28 -21 0 -42 2 -48 3 -5 1 -44 5 -85 9 -41 5 -84 10 -95 12 -11 1 -55
6 -99 9 -44 4 -83 8 -86 10 -3 1 -39 6 -80 9 -115 11 -174 18 -181 22 -4 2 -7
44 -7 92 0 118 -18 152 -92 175 -8 2 -31 -1 -50 -7z"/>
</g>
</svg>
